<?xml version="1.0" encoding="iso-8859-1"?>
<!-- Generator: Adobe Illustrator 19.0.0, SVG Export Plug-In . SVG Version: 6.00 Build 0)  -->
<svg version="1.1" id="Capa_1" xmlns="http://www.w3.org/2000/svg" xmlns:xlink="http://www.w3.org/1999/xlink" x="0px" y="0px"
	 viewBox="0 0 480 480" style="enable-background:new 0 0 480 480;" xml:space="preserve">
<g>
	<g>
		<path d="M232,416h-8H96v-16.552c31.52-3.96,56-30.872,56-63.448h-16c0,23.736-17.336,43.448-40,47.28V320c0-4.424-3.576-8-8-8H48
			V208c0-41.936,13.272-81.776,38.384-115.192l-12.8-9.608C46.384,119.408,32,162.56,32,208v112c0,4.424,3.576,8,8,8h40v96
			c0,4.424,3.576,8,8,8h136v48h16v-48h16v-16H232z"/>
	</g>
</g>
<g>
	<g>
		<path d="M240,0C187.344,0,137.12,19.712,98.552,55.496l10.888,11.736C145.032,34.184,191.4,16,240,16
			c2.576,0,5.144,0.056,7.696,0.152l0.608-15.984C245.544,0.056,242.784,0,240,0z"/>
	</g>
</g>
<g>
	<g>
		<path d="M364.792,41.576l-9.608,12.8c14.576,10.944,27.512,23.88,38.44,38.44l12.8-9.608
			C394.576,67.44,380.576,53.44,364.792,41.576z"/>
	</g>
</g>
<g>
	<g>
		<path d="M447.832,199.696l-15.984,0.608c0.096,2.552,0.152,5.12,0.152,7.696v272h16V208
			C448,205.216,447.944,202.456,447.832,199.696z"/>
	</g>
</g>
<g>
	<g>
		<path d="M480,120v-16H368V80c0-4.424-3.576-8-8-8h-16V0h-16v72h-16V0h-16v72h-16V0h-16v72h-32c-4.424,0-8,3.576-8,8v24h-92.688
			L69.656,42.344C68.16,40.84,66.128,40,64,40H46.528C43.216,30.712,34.416,24,24,24C10.768,24,0,34.768,0,48s10.768,24,24,24
			c10.416,0,19.216-6.712,22.528-16h14.16l61.656,61.656C123.84,119.16,125.872,120,128,120h96v16h-56
			c-2.128,0-4.16,0.84-5.656,2.344L148.688,152h-6.16c-3.312-9.288-12.112-16-22.528-16c-13.232,0-24,10.768-24,24s10.768,24,24,24
			c10.416,0,19.216-6.712,22.528-16H152c2.128,0,4.16-0.84,5.656-2.344L171.312,152H224v16h-8c-2.128,0-4.16,0.84-5.656,2.344
			L164.688,216h-30.16c-3.312-9.288-12.112-16-22.528-16c-13.232,0-24,10.768-24,24s10.768,24,24,24
			c10.416,0,19.216-6.712,22.528-16H168c2.128,0,4.16-0.84,5.656-2.344L219.312,184H224v24c0,4.424,3.576,8,8,8h32v100.688
			l-21.656,21.656C240.84,339.84,240,341.872,240,344v9.472c-9.288,3.312-16,12.112-16,22.528c0,13.232,10.768,24,24,24
			s24-10.768,24-24c0-10.416-6.712-19.216-16-22.528v-6.16l21.656-21.656C279.16,324.16,280,322.128,280,320V216h16v56
			c0,2.128,0.84,4.16,2.344,5.656L320,299.312v86.16c-9.288,3.312-16,12.112-16,22.528c0,13.232,10.768,24,24,24s24-10.768,24-24
			c0-10.416-6.712-19.216-16-22.528V296c0-2.128-0.84-4.16-2.344-5.656L312,268.688V216h16v24c0,2.128,0.84,4.16,2.344,5.656
			L384,299.312v134.16c-9.288,3.312-16,12.112-16,22.528c0,13.232,10.768,24,24,24s24-10.768,24-24c0-10.416-6.712-19.216-16-22.528
			V296c0-2.128-0.84-4.16-2.344-5.656L344,236.688V216h16c4.424,0,8-3.576,8-8v-24h112v-16H368v-16h112v-16H368v-16H480z M24,56
			c-4.416,0-8-3.584-8-8s3.584-8,8-8s8,3.584,8,8S28.416,56,24,56z M120,168c-4.416,0-8-3.584-8-8s3.584-8,8-8s8,3.584,8,8
			S124.416,168,120,168z M112,232c-4.416,0-8-3.584-8-8s3.584-8,8-8s8,3.584,8,8S116.416,232,112,232z M248,384
			c-4.416,0-8-3.584-8-8c0-4.416,3.584-8,8-8c4.416,0,8,3.584,8,8C256,380.416,252.416,384,248,384z M328,400c4.416,0,8,3.584,8,8
			c0,4.416-3.584,8-8,8c-4.416,0-8-3.584-8-8C320,403.584,323.584,400,328,400z M392,448c4.416,0,8,3.584,8,8c0,4.416-3.584,8-8,8
			c-4.416,0-8-3.584-8-8C384,451.584,387.584,448,392,448z M352,200H240V88h112V200z"/>
	</g>
</g>
<g>
	<g>
		<rect x="256" y="104" width="16" height="16"/>
	</g>
</g>
<g>
	<g>
		<rect x="288" y="104" width="16" height="16"/>
	</g>
</g>
<g>
	<g>
		<rect x="256" y="136" width="16" height="16"/>
	</g>
</g>
<g>
	<g>
		<rect x="256" y="168" width="16" height="16"/>
	</g>
</g>
<g>
	<g>
		<rect x="288" y="136" width="16" height="16"/>
	</g>
</g>
<g>
	<g>
		<rect x="288" y="168" width="16" height="16"/>
	</g>
</g>
<g>
	<g>
		<rect x="320" y="104" width="16" height="16"/>
	</g>
</g>
<g>
	<g>
		<rect x="320" y="136" width="16" height="16"/>
	</g>
</g>
<g>
	<g>
		<rect x="320" y="168" width="16" height="16"/>
	</g>
</g>
<g>
</g>
<g>
</g>
<g>
</g>
<g>
</g>
<g>
</g>
<g>
</g>
<g>
</g>
<g>
</g>
<g>
</g>
<g>
</g>
<g>
</g>
<g>
</g>
<g>
</g>
<g>
</g>
<g>
</g>
</svg>
