<?xml version="1.0" encoding="iso-8859-1"?>
<!-- Generator: Adobe Illustrator 18.0.0, SVG Export Plug-In . SVG Version: 6.00 Build 0)  -->
<!DOCTYPE svg PUBLIC "-//W3C//DTD SVG 1.1//EN" "http://www.w3.org/Graphics/SVG/1.1/DTD/svg11.dtd">
<svg version="1.1" id="Capa_1" xmlns="http://www.w3.org/2000/svg" xmlns:xlink="http://www.w3.org/1999/xlink" x="0px" y="0px"
	 viewBox="0 0 297 297" style="enable-background:new 0 0 297 297;" xml:space="preserve">
<g>
	<path d="M276.491,208.568c-10.379-5.704-24.503-9.764-42.203-12.157c-2.5,0.893-4.987,1.729-7.428,2.507
		c-29.868,9.52-67.148,15.203-99.725,15.203c-22.924,0-40.354-2.91-53.525-7.7c-4.206,0.911-8.341,1.859-12.355,2.857
		C12.802,221.334,0,234.475,0,239.74s12.802,18.406,61.255,30.461c38.842,9.663,87.368,15.432,129.807,15.432
		c38.912,0,67.654-4.953,85.429-14.721C290.291,263.327,297,253.131,297,239.74C297,226.349,290.291,216.153,276.491,208.568z"/>
	<path d="M127.135,199.002c31.105,0,66.668-5.417,95.133-14.489c32.712-10.427,44.319-21.944,44.319-28.639
		c0-6.695-11.607-18.213-44.319-28.64c-4.336-1.382-8.851-2.668-13.479-3.87c-10.088,5.822-25.327,9.657-47.981,9.657
		c-22.018,0-56.539-4.345-81.074-13.834c-19.296,6.833-29.045,19.086-29.045,36.688C50.689,184.491,76.409,199.002,127.135,199.002z
		"/>
	<path d="M135.823,57.073c17.883,0,32.991-10.466,32.991-22.854c0-12.387-15.107-22.853-32.991-22.853
		c-17.883,0-32.991,10.466-32.991,22.853C102.832,46.608,117.939,57.073,135.823,57.073z"/>
	<path d="M94.968,108.391c19.401,5.865,44.629,9.508,65.84,9.508c33.904,0,51.095-8.751,51.095-26.007
		c0-3.182-7.049-10.215-26.472-16.548c-8.768-2.859-18.776-5.147-29.155-6.763c-6.212,2.313-13.143,3.613-20.455,3.613
		c-9.401,0-18.174-2.148-25.593-5.842c-27.756,2.116-44.51,11.493-44.51,25.54C65.72,93.879,71.093,101.174,94.968,108.391z"/>
</g>
<g>
</g>
<g>
</g>
<g>
</g>
<g>
</g>
<g>
</g>
<g>
</g>
<g>
</g>
<g>
</g>
<g>
</g>
<g>
</g>
<g>
</g>
<g>
</g>
<g>
</g>
<g>
</g>
<g>
</g>
</svg>
